<svg width="42" height="44" viewBox="0 0 42 44" fill="none" xmlns="http://www.w3.org/2000/svg">
<path d="M20.8455 1.52447L21 1.47427L21.1545 1.52447L32.9102 5.34413L33.0647 5.39433L33.1602 5.52577L40.4256 15.5258L40.5211 15.6572V15.8197V28.1803V28.3428L40.4256 28.4742L33.1602 38.4742L33.0647 38.6057L32.9102 38.6559L21.1545 42.4755L21 42.5257L20.8455 42.4755L9.08979 38.6559L8.93528 38.6057L8.83979 38.4742L1.57436 28.4742L1.47887 28.3428V28.1803V15.8197V15.6572L1.57436 15.5258L8.83979 5.52577L8.93528 5.39433L9.08979 5.34413L20.8455 1.52447Z" fill="#267E79" stroke="#2D2327"/>
<path d="M27 19.3985H23.249V17.3985C23.249 16.3665 23.3384 15.7165 24.9122 15.7165H26.9V12.5365C25.9327 12.4425 24.9601 12.3965 23.9864 12.3985C21.0994 12.3985 18.9924 14.0555 18.9924 17.0975V19.3985H15.8V23.3985L18.9924 23.3975V32.3984H23.249V23.3955L26.5116 23.3945L27 19.3985Z" fill="#6DD3CE" stroke="#2D2327"/>
</svg>
