<svg width="42" height="44" viewBox="0 0 42 44" fill="none" xmlns="http://www.w3.org/2000/svg">
<path d="M20.8455 1.52447L21 1.47427L21.1545 1.52447L32.9102 5.34413L33.0647 5.39433L33.1602 5.52577L40.4256 15.5258L40.5211 15.6572V15.8197V28.1803V28.3428L40.4256 28.4742L33.1602 38.4742L33.0647 38.6057L32.9102 38.6559L21.1545 42.4755L21 42.5257L20.8455 42.4755L9.08979 38.6559L8.93528 38.6057L8.83979 38.4742L1.57436 28.4742L1.47887 28.3428V28.1803V15.8197V15.6572L1.57436 15.5258L8.83979 5.52577L8.93528 5.39433L9.08979 5.34413L20.8455 1.52447Z" fill="#267E79" stroke="#2D2327"/>
<path d="M16.9556 12.3984C13.8878 12.3984 11.4 14.8862 11.4 17.954V26.8429C11.4 29.9107 13.8878 32.3984 16.9556 32.3984H25.8445C28.9122 32.3984 31.4 29.9107 31.4 26.8429V17.954C31.4 14.8862 28.9122 12.3984 25.8445 12.3984H16.9556ZM28.0667 14.6207C28.68 14.6207 29.1778 15.1184 29.1778 15.7318C29.1778 16.3451 28.68 16.8429 28.0667 16.8429C27.4534 16.8429 26.9556 16.3451 26.9556 15.7318C26.9556 15.1184 27.4534 14.6207 28.0667 14.6207ZM21.4 16.8429C24.4678 16.8429 26.9556 19.3307 26.9556 22.3984C26.9556 25.4662 24.4678 27.954 21.4 27.954C18.3322 27.954 15.8445 25.4662 15.8445 22.3984C15.8445 19.3307 18.3322 16.8429 21.4 16.8429ZM21.4 19.0651C20.516 19.0651 19.6681 19.4163 19.043 20.0414C18.4179 20.6665 18.0667 21.5144 18.0667 22.3984C18.0667 23.2825 18.4179 24.1303 19.043 24.7555C19.6681 25.3806 20.516 25.7318 21.4 25.7318C22.2841 25.7318 23.1319 25.3806 23.757 24.7555C24.3822 24.1303 24.7334 23.2825 24.7334 22.3984C24.7334 21.5144 24.3822 20.6665 23.757 20.0414C23.1319 19.4163 22.2841 19.0651 21.4 19.0651Z" fill="#6DD3CE" stroke="#2D2327"/>
</svg>
