<svg width="42" height="44" viewBox="0 0 42 44" fill="none" xmlns="http://www.w3.org/2000/svg">
<path d="M20.8455 1.52447L21 1.47427L21.1545 1.52447L32.9102 5.34413L33.0647 5.39433L33.1602 5.52577L40.4256 15.5258L40.5211 15.6572V15.8197V28.1803V28.3428L40.4256 28.4742L33.1602 38.4742L33.0647 38.6057L32.9102 38.6559L21.1545 42.4755L21 42.5257L20.8455 42.4755L9.08979 38.6559L8.93528 38.6057L8.83979 38.4742L1.57436 28.4742L1.47887 28.3428V28.1803V15.8197V15.6572L1.57436 15.5258L8.83979 5.52577L8.93528 5.39433L9.08979 5.34413L20.8455 1.52447Z" fill="#267E79" stroke="#2D2327"/>
<path d="M15.6509 32.3984H11.1238V19.2935H15.6509V32.3984ZM13.3075 16.8916C11.9241 16.8916 11 15.9293 11 14.645C11 13.3607 11.9223 12.3984 13.46 12.3984C14.8435 12.3984 15.7676 13.3607 15.7676 14.645C15.7676 15.9293 14.8453 16.8916 13.3075 16.8916ZM31.8 32.3984H27.4182V25.2357C27.4182 23.2549 26.2501 22.7981 25.8123 22.7981C25.3745 22.7981 23.9139 23.1033 23.9139 25.2357C23.9139 25.5408 23.9139 32.3984 23.9139 32.3984H19.3868V19.2935H23.9139V21.1226C24.497 20.0555 25.6651 19.2935 27.856 19.2935C30.0469 19.2935 31.8 21.1226 31.8 25.2357V32.3984Z" fill="#6DD3CE" stroke="#2D2327"/>
</svg>
