<svg width="211" height="46" viewBox="0 0 211 46" fill="none" xmlns="http://www.w3.org/2000/svg">
<path d="M0.898438 25.6406C1.02865 25.849 1.17188 26.0964 1.32812 26.3828C1.48438 26.6693 1.6276 26.9167 1.75781 27.125C2.22656 27.9844 2.7474 28.7786 3.32031 29.5078C3.91927 30.2109 4.54427 30.8229 5.19531 31.3438C5.8724 31.8646 6.5625 32.2682 7.26562 32.5547C7.96875 32.8411 8.64583 32.9844 9.29688 32.9844C10.9896 32.9844 12.3177 32.5938 13.2812 31.8125C14.2708 31.0312 14.7656 30.0938 14.7656 29C14.7656 28.0885 14.0885 27.1771 12.7344 26.2656C11.4062 25.3542 9.59635 24.5859 7.30469 23.9609C6.28906 23.6745 5.36458 23.3099 4.53125 22.8672C3.69792 22.3984 2.98177 21.8646 2.38281 21.2656C1.8099 20.6406 1.35417 19.9766 1.01562 19.2734C0.703125 18.5443 0.546875 17.7891 0.546875 17.0078C0.546875 15.7578 0.78125 14.625 1.25 13.6094C1.74479 12.5938 2.42188 11.7344 3.28125 11.0312C4.16667 10.3281 5.23438 9.78125 6.48438 9.39062C7.73438 9 9.14062 8.80469 10.7031 8.80469C11.3542 8.80469 12.0052 8.85677 12.6562 8.96094C13.3333 9.0651 13.9844 9.22135 14.6094 9.42969C15.2604 9.61198 15.8594 9.84635 16.4062 10.1328C16.9792 10.4193 17.474 10.7318 17.8906 11.0703L18.2422 17.3203H17.6562C17.4479 16.6172 17.1094 15.862 16.6406 15.0547C16.1719 14.2214 15.612 13.4661 14.9609 12.7891C14.3099 12.0859 13.5938 11.513 12.8125 11.0703C12.0312 10.6016 11.224 10.3672 10.3906 10.3672C8.80208 10.3932 7.53906 10.7708 6.60156 11.5C5.66406 12.2292 5.19531 13.2188 5.19531 14.4688C5.19531 15.25 5.85938 16.0573 7.1875 16.8906C8.51562 17.724 10.2995 18.4401 12.5391 19.0391C14.6745 19.638 16.3802 20.6016 17.6562 21.9297C18.9323 23.2318 19.5703 24.7292 19.5703 26.4219C19.5703 27.5938 19.3229 28.6875 18.8281 29.7031C18.3594 30.6927 17.6693 31.5521 16.7578 32.2812C15.8724 33.0104 14.7917 33.5833 13.5156 34C12.2656 34.3906 10.8594 34.5859 9.29688 34.5859C8.41146 34.5859 7.53906 34.5078 6.67969 34.3516C5.82031 34.2214 5.01302 34.026 4.25781 33.7656C3.52865 33.5052 2.85156 33.2188 2.22656 32.9062C1.6276 32.5677 1.11979 32.2292 0.703125 31.8906L0.351562 25.6406H0.898438ZM20.6047 18.4141V17.7891C21.5422 17.5807 22.649 16.8776 23.925 15.6797C25.201 14.4818 26.425 12.9583 27.5969 11.1094H28.4953V16.1875H33.6906V18.4141H28.4953C28.4953 19.8724 28.4953 21.2917 28.4953 22.6719C28.4693 23.8438 28.4562 25.0677 28.4562 26.3438C28.4562 27.5938 28.4562 28.6484 28.4562 29.5078C28.4562 30.3672 28.5865 30.9401 28.8469 31.2266C29.1333 31.513 29.6542 31.6562 30.4094 31.6562C30.5917 31.6562 30.813 31.6302 31.0734 31.5781C31.3339 31.5 31.6073 31.3828 31.8937 31.2266C32.2062 31.0703 32.5187 30.849 32.8312 30.5625C33.1437 30.276 33.4562 29.9115 33.7687 29.4688L34.1594 29.9766C33.6646 30.888 33.1047 31.6172 32.4797 32.1641C31.8807 32.7109 31.2818 33.1406 30.6828 33.4531C30.0839 33.7396 29.524 33.9349 29.0031 34.0391C28.4823 34.1432 28.0526 34.1953 27.7141 34.1953C26.7766 34.1953 25.9953 34.1172 25.3703 33.9609C24.7453 33.7786 24.2505 33.4792 23.8859 33.0625C23.5214 32.6198 23.2609 32.0339 23.1047 31.3047C22.9484 30.5755 22.8703 29.651 22.8703 28.5312V18.4141H20.6047ZM34.6078 16.6172V16.1875H42.8109V27.4375C42.8109 28.349 43.1234 29.0781 43.7484 29.625C44.3734 30.1719 45.3109 30.4453 46.5609 30.4453C46.8474 30.4453 47.1078 30.3802 47.3422 30.25C47.5766 30.0938 47.7849 29.9115 47.9672 29.7031V23.6875C47.9932 21.9167 47.7979 20.4453 47.3812 19.2734C46.9906 18.1016 46.4307 17.4766 45.7016 17.3984L45.35 17.3594C45.35 17.3073 45.35 17.2422 45.35 17.1641C45.324 17.0859 45.3109 16.9036 45.3109 16.6172V16.1875H53.475V23.6875C53.475 24.8854 53.501 25.875 53.5531 26.6562C53.6052 27.4375 53.7094 28.0755 53.8656 28.5703C54.0479 29.0391 54.2823 29.4297 54.5687 29.7422C54.8812 30.0286 55.2719 30.2891 55.7406 30.5234L56.1312 30.7188C56.1312 30.7448 56.1443 30.7839 56.1703 30.8359V31.1094L49.1 34H47.9672V30.7969C47.1599 31.8646 46.2875 32.6979 45.35 33.2969C44.4125 33.8958 43.3708 34.1953 42.225 34.1953C40.5844 34.1953 39.3474 33.6354 38.5141 32.5156C37.7068 31.3958 37.3031 29.8984 37.3031 28.0234V23.4141C37.3031 21.6693 37.0948 20.25 36.6781 19.1562C36.2875 18.0625 35.7406 17.4766 35.0375 17.3984L34.6469 17.3594C34.6469 17.3073 34.6469 17.2422 34.6469 17.1641C34.6208 17.0859 34.6078 16.9036 34.6078 16.6172ZM57.2438 26.3438C57.2438 24.7552 57.4651 23.3229 57.9078 22.0469C58.3505 20.7708 58.9755 19.6901 59.7828 18.8047C60.6161 17.8932 61.6057 17.2031 62.7516 16.7344C63.9234 16.2396 65.2255 15.9922 66.6578 15.9922C67.2047 15.9922 67.7255 16.0833 68.2203 16.2656C68.7151 16.4479 69.1839 16.6953 69.6266 17.0078C69.6005 16.0443 69.5484 15.25 69.4703 14.625C69.4182 13.974 69.301 13.4531 69.1188 13.0625C68.9625 12.6458 68.7411 12.3073 68.4547 12.0469C68.1682 11.7865 67.8036 11.5391 67.3609 11.3047L66.9703 11.1094C66.9703 11.0833 66.9703 11.0443 66.9703 10.9922C66.9443 10.9401 66.9313 10.849 66.9313 10.7188L74.0016 7.82812H75.0953V23.6875C75.0953 24.8854 75.1214 25.875 75.1734 26.6562C75.2516 27.4115 75.3688 28.0365 75.525 28.5312C75.7073 29.026 75.9417 29.4167 76.2281 29.7031C76.5406 29.9896 76.9313 30.263 77.4 30.5234L77.7516 30.7188C77.7516 30.7448 77.7646 30.7839 77.7906 30.8359V31.1094L70.7203 34H69.6266V31.3438C68.8714 32.2292 68.038 32.9323 67.1266 33.4531C66.2411 33.9479 65.3818 34.1953 64.5484 34.1953C62.2828 34.1953 60.499 33.4922 59.1969 32.0859C57.8948 30.6797 57.2438 28.7656 57.2438 26.3438ZM67.5563 30.7188C67.999 30.7188 68.3896 30.6797 68.7281 30.6016C69.0927 30.4974 69.3922 30.3802 69.6266 30.25V19.3516C69.262 18.8047 68.7932 18.375 68.2203 18.0625C67.6734 17.724 67.0615 17.5547 66.3844 17.5547C65.3427 17.5547 64.5094 18.1536 63.8844 19.3516C63.2854 20.5495 62.9859 22.1641 62.9859 24.1953C62.9859 26.2005 63.3896 27.7891 64.1969 28.9609C65.0302 30.1328 66.15 30.7188 67.5563 30.7188ZM78.5906 34V33.5703C78.5906 33.2839 78.6036 33.1016 78.6297 33.0234C78.6297 32.9453 78.6297 32.8802 78.6297 32.8281L78.9812 32.7891C79.7365 32.7109 80.3094 32.099 80.7 30.9531C81.0906 29.7812 81.2859 28.3099 81.2859 26.5391C81.2859 25.3151 81.2469 24.3255 81.1687 23.5703C81.1167 22.7891 80.9995 22.151 80.8172 21.6562C80.6609 21.1615 80.4266 20.7708 80.1141 20.4844C79.8276 20.1979 79.45 19.9245 78.9812 19.6641L78.6297 19.4688C78.6297 19.4427 78.6297 19.4036 78.6297 19.3516C78.6036 19.2995 78.5906 19.2083 78.5906 19.0781L85.7 16.1875H86.7937V26.7734C86.7937 28.5182 87.0021 29.9375 87.4187 31.0312C87.8354 32.125 88.3823 32.7109 89.0594 32.7891L89.45 32.8281C89.45 32.8802 89.463 32.9453 89.4891 33.0234V33.5703V34H78.5906ZM80.7 10.3281C80.7 9.36458 80.9734 8.60938 81.5203 8.0625C82.0672 7.48958 82.8094 7.20312 83.7469 7.20312C84.6583 7.20312 85.3875 7.48958 85.9344 8.0625C86.4812 8.60938 86.7547 9.36458 86.7547 10.3281C86.7547 11.2917 86.4812 12.0599 85.9344 12.6328C85.3875 13.1797 84.6583 13.4531 83.7469 13.4531C82.8094 13.4531 82.0672 13.1797 81.5203 12.6328C80.9734 12.0599 80.7 11.2917 80.7 10.3281ZM90.5234 25.0938C90.5234 23.7135 90.7448 22.4635 91.1875 21.3438C91.6562 20.224 92.3203 19.2734 93.1797 18.4922C94.0391 17.6849 95.0807 17.0729 96.3047 16.6562C97.5286 16.2135 98.8958 15.9922 100.406 15.9922C101.891 15.9922 103.232 16.2135 104.43 16.6562C105.654 17.0729 106.695 17.6849 107.555 18.4922C108.414 19.2734 109.065 20.224 109.508 21.3438C109.977 22.4635 110.211 23.7135 110.211 25.0938C110.211 26.474 109.977 27.724 109.508 28.8438C109.065 29.9635 108.414 30.9271 107.555 31.7344C106.695 32.5156 105.654 33.1276 104.43 33.5703C103.232 33.987 101.891 34.1953 100.406 34.1953C98.8958 34.1953 97.5286 33.987 96.3047 33.5703C95.0807 33.1276 94.0391 32.5156 93.1797 31.7344C92.3203 30.9271 91.6562 29.9635 91.1875 28.8438C90.7448 27.724 90.5234 26.474 90.5234 25.0938ZM96.5391 25.0938C96.5391 27.4896 96.8906 29.3906 97.5938 30.7969C98.2969 32.2031 99.2344 32.9062 100.406 32.9062C101.578 32.9062 102.516 32.2031 103.219 30.7969C103.922 29.3906 104.273 27.4896 104.273 25.0938C104.273 22.6979 103.922 20.7969 103.219 19.3906C102.516 17.9844 101.578 17.2812 100.406 17.2812C99.2344 17.2812 98.2969 17.9844 97.5938 19.3906C96.8906 20.7969 96.5391 22.6979 96.5391 25.0938ZM112.339 32.8281L112.73 32.7891C113.433 32.7109 114.006 32.125 114.448 31.0312C114.917 29.9375 115.178 28.5182 115.23 26.7734L115.659 15.7188C115.685 14.1042 115.516 12.8021 115.152 11.8125C114.787 10.8229 114.279 10.2891 113.628 10.2109L113.277 10.1719C113.277 10.1198 113.277 10.0547 113.277 9.97656C113.251 9.89844 113.238 9.71615 113.238 9.42969V9H120.659L130.308 27.125L138.511 9H141.284V8.96094H146.636V10.1328L146.284 10.1719C145.607 10.25 145.099 10.849 144.761 11.9688C144.422 13.0625 144.292 14.4688 144.37 16.1875L144.878 27.5156C145.008 29.0521 145.295 30.3021 145.738 31.2656C146.18 32.2292 146.727 32.737 147.378 32.7891L147.769 32.8281V34H136.363V33.5703C136.363 33.2839 136.376 33.1016 136.402 33.0234C136.402 32.9453 136.402 32.8802 136.402 32.8281L136.792 32.7891C137.443 32.737 137.951 32.2292 138.316 31.2656C138.68 30.3021 138.876 29.0391 138.902 27.4766L138.628 13.7266L128.941 34.1953H127.456C125.894 31.2266 124.227 28.2708 122.456 25.3281C120.685 22.3854 119.019 19.4167 117.456 16.4219L117.105 26.1875C117.079 27.151 117.118 28.0365 117.222 28.8438C117.352 29.625 117.547 30.3021 117.808 30.875C118.068 31.4479 118.394 31.9036 118.784 32.2422C119.175 32.5807 119.618 32.763 120.113 32.7891L120.698 32.8281C120.698 32.8802 120.711 32.9453 120.738 33.0234V33.5703V34H112.339V32.8281ZM149.506 29.5859C149.506 28.4401 149.858 27.5156 150.561 26.8125C151.264 26.0833 152.123 25.5234 153.139 25.1328C154.155 24.7161 155.222 24.4297 156.342 24.2734C157.488 24.0911 158.491 23.987 159.35 23.9609V20.9141C159.35 19.9245 159.22 19.1302 158.959 18.5312C158.725 17.9323 158.386 17.6328 157.944 17.6328C157.084 17.6328 156.459 18.0625 156.069 18.9219C155.678 19.7552 155.574 20.862 155.756 22.2422C155.235 22.3724 154.754 22.4766 154.311 22.5547C153.894 22.6328 153.465 22.6719 153.022 22.6719C152.605 22.6719 152.176 22.6328 151.733 22.5547C151.29 22.4766 150.782 22.3724 150.209 22.2422C150.079 21.3307 150.209 20.4844 150.6 19.7031C150.991 18.9219 151.577 18.2578 152.358 17.7109C153.165 17.1641 154.142 16.7474 155.288 16.4609C156.459 16.1484 157.761 16.0182 159.194 16.0703C161.017 16.1224 162.462 16.6953 163.53 17.7891C164.623 18.8568 165.17 20.3281 165.17 22.2031V28.9609C165.17 29.7943 165.274 30.4714 165.483 30.9922C165.691 31.487 166.095 31.7344 166.694 31.7344C167.136 31.7344 167.488 31.6693 167.748 31.5391C168.009 31.3828 168.204 31.1745 168.334 30.9141L168.92 31.6562C168.452 32.5156 167.774 33.2057 166.889 33.7266C166.004 34.2214 164.689 34.4688 162.944 34.4688C162.163 34.4688 161.485 34.2995 160.913 33.9609C160.34 33.6224 159.949 33.1536 159.741 32.5547C159.064 32.9974 158.256 33.401 157.319 33.7656C156.381 34.1042 155.392 34.2734 154.35 34.2734C153.621 34.2734 152.957 34.1432 152.358 33.8828C151.759 33.6224 151.251 33.2839 150.834 32.8672C150.418 32.4245 150.092 31.9167 149.858 31.3438C149.623 30.7708 149.506 30.1849 149.506 29.5859ZM155.014 28.6875C155.014 29.599 155.288 30.3021 155.834 30.7969C156.407 31.2656 157.045 31.5 157.748 31.5C158.347 31.5 158.894 31.3307 159.389 30.9922L159.35 25.0547C158.803 25.0547 158.269 25.1198 157.748 25.25C157.254 25.3802 156.798 25.6016 156.381 25.9141C155.965 26.2005 155.626 26.5781 155.366 27.0469C155.131 27.4896 155.014 28.0365 155.014 28.6875ZM169.798 34V33.5703C169.798 33.2839 169.811 33.1016 169.837 33.0234C169.837 32.9453 169.837 32.8802 169.837 32.8281L170.189 32.7891C170.944 32.7109 171.504 32.099 171.869 30.9531C172.259 29.7812 172.455 28.2969 172.455 26.5C172.455 25.276 172.429 24.2865 172.377 23.5312C172.324 22.776 172.207 22.151 172.025 21.6562C171.869 21.1615 171.634 20.7708 171.322 20.4844C171.035 20.1979 170.658 19.9245 170.189 19.6641L169.837 19.4688C169.837 19.4427 169.837 19.4036 169.837 19.3516C169.811 19.2995 169.798 19.2083 169.798 19.0781L176.869 16.1875H177.962V21.8906C178.145 21.4479 178.379 20.9271 178.666 20.3281C178.952 19.7292 179.291 19.1562 179.681 18.6094C180.072 18.0625 180.515 17.5807 181.009 17.1641C181.504 16.7214 182.038 16.4479 182.611 16.3438C183.731 16.1354 184.564 16.3177 185.111 16.8906C185.658 17.4375 186.022 18.2318 186.205 19.2734C186.257 19.6901 186.218 20.0807 186.087 20.4453C185.983 20.7839 185.827 21.0833 185.619 21.3438C185.436 21.5781 185.215 21.7604 184.955 21.8906C184.694 21.9948 184.46 22.0078 184.252 21.9297C183.757 21.7474 183.275 21.513 182.806 21.2266C182.337 20.9401 181.83 20.7969 181.283 20.7969C180.814 20.7969 180.306 20.9792 179.759 21.3438C179.239 21.6823 178.64 22.3464 177.962 23.3359V26.7734C177.962 28.5182 178.158 29.9375 178.548 31.0312C178.965 32.125 179.525 32.7109 180.228 32.7891L180.619 32.8281C180.619 32.8802 180.632 32.9453 180.658 33.0234V33.5703V34H169.798ZM186.848 18.4141V17.7891C187.786 17.5807 188.893 16.8776 190.169 15.6797C191.445 14.4818 192.669 12.9583 193.841 11.1094H194.739V16.1875H199.934V18.4141H194.739C194.739 19.8724 194.739 21.2917 194.739 22.6719C194.713 23.8438 194.7 25.0677 194.7 26.3438C194.7 27.5938 194.7 28.6484 194.7 29.5078C194.7 30.3672 194.83 30.9401 195.091 31.2266C195.377 31.513 195.898 31.6562 196.653 31.6562C196.835 31.6562 197.057 31.6302 197.317 31.5781C197.578 31.5 197.851 31.3828 198.137 31.2266C198.45 31.0703 198.762 30.849 199.075 30.5625C199.387 30.276 199.7 29.9115 200.012 29.4688L200.403 29.9766C199.908 30.888 199.348 31.6172 198.723 32.1641C198.124 32.7109 197.526 33.1406 196.927 33.4531C196.328 33.7396 195.768 33.9349 195.247 34.0391C194.726 34.1432 194.296 34.1953 193.958 34.1953C193.02 34.1953 192.239 34.1172 191.614 33.9609C190.989 33.7786 190.494 33.4792 190.13 33.0625C189.765 32.6198 189.505 32.0339 189.348 31.3047C189.192 30.5755 189.114 29.651 189.114 28.5312V18.4141H186.848Z" fill="#0C090A"/>
<circle cx="208" cy="31" r="3" fill="#1570FA"/>
</svg>
