<svg width="162" height="66" viewBox="0 0 162 66" fill="none" xmlns="http://www.w3.org/2000/svg">
<rect y="0.382812" width="161.978" height="65" rx="16" fill="white"/>
<path d="M17.875 24.2077V39.5592C17.8751 39.5925 17.885 39.6251 17.9036 39.6528C17.9221 39.6805 17.9484 39.7021 17.9791 39.7149C18.0098 39.7277 18.0437 39.7311 18.0764 39.7248C18.1091 39.7184 18.1392 39.7025 18.1629 39.6792L26.1562 31.8839L18.1629 24.0878C18.1392 24.0644 18.1091 24.0485 18.0764 24.0422C18.0437 24.0358 18.0098 24.0393 17.9791 24.0521C17.9484 24.0649 17.9221 24.0865 17.9036 24.1142C17.885 24.1418 17.8751 24.1744 17.875 24.2077Z" fill="#1570FA"/>
<path d="M29.5089 28.6798L19.4862 23.1579L19.48 23.1544C19.3073 23.0607 19.1433 23.2943 19.2847 23.4302L27.1413 30.9427L29.5089 28.6798Z" fill="#1570FA"/>
<path d="M19.2851 40.3375C19.1429 40.4734 19.307 40.707 19.4804 40.6133L19.4867 40.6098L29.5086 35.0879L27.141 32.8242L19.2851 40.3375Z" fill="#1570FA"/>
<path d="M33.5538 30.9047L30.7549 29.3633L28.1233 31.8812L30.7549 34.398L33.5538 32.8578C34.3151 32.4371 34.3151 31.3254 33.5538 30.9047Z" fill="#1570FA"/>
<path d="M44.4175 25.3828H42.6735V19.6548H44.4015C46.1295 19.6548 47.2815 20.8068 47.2815 22.5188C47.2815 24.2308 46.1375 25.3828 44.4175 25.3828ZM44.3775 20.1828H43.2495V24.8548H44.3935C45.7935 24.8548 46.6895 23.9428 46.6895 22.5188C46.6895 21.0868 45.7935 20.1828 44.3775 20.1828ZM48.17 23.4468C48.17 22.2628 49.002 21.4068 50.138 21.4068C51.274 21.4068 52.106 22.2628 52.106 23.4468C52.106 24.6228 51.274 25.4788 50.138 25.4788C49.002 25.4788 48.17 24.6228 48.17 23.4468ZM48.73 23.4388C48.73 24.3508 49.306 24.9828 50.138 24.9828C50.962 24.9828 51.546 24.3508 51.546 23.4388C51.546 22.5428 50.962 21.9028 50.138 21.9028C49.306 21.9028 48.73 22.5428 48.73 23.4388ZM53.873 25.3828L52.593 21.5108H53.161L53.921 23.8468C54.009 24.1028 54.081 24.3668 54.161 24.6788C54.225 24.3668 54.353 23.9748 54.393 23.8468L55.161 21.5108H55.729L56.489 23.8468C56.561 24.0548 56.657 24.3908 56.729 24.6788C56.809 24.3588 56.825 24.2628 56.961 23.8468L57.729 21.5108H58.305L56.993 25.3828H56.457L55.657 22.9508C55.561 22.6628 55.497 22.4228 55.449 22.1908C55.393 22.3988 55.329 22.6308 55.225 22.9508L54.425 25.3828H53.873ZM59.7865 25.3828H59.2345V21.5108H59.7145L59.7945 22.1828C60.0505 21.6868 60.5625 21.4068 61.1225 21.4068C62.1865 21.4068 62.6265 22.0388 62.6265 23.0148V25.3828H62.0745V23.1348C62.0745 22.2308 61.6665 21.9108 61.0265 21.9108C60.2345 21.9108 59.7865 22.4868 59.7865 23.3588V25.3828ZM64.5427 25.3828H63.9907V19.5508H64.5427V25.3828ZM65.6847 23.4468C65.6847 22.2628 66.5167 21.4068 67.6527 21.4068C68.7887 21.4068 69.6207 22.2628 69.6207 23.4468C69.6207 24.6228 68.7887 25.4788 67.6527 25.4788C66.5167 25.4788 65.6847 24.6228 65.6847 23.4468ZM66.2447 23.4388C66.2447 24.3508 66.8207 24.9828 67.6527 24.9828C68.4767 24.9828 69.0607 24.3508 69.0607 23.4388C69.0607 22.5428 68.4767 21.9028 67.6527 21.9028C66.8207 21.9028 66.2447 22.5428 66.2447 23.4388ZM71.8555 25.4788C71.0315 25.4788 70.5435 25.0148 70.5435 24.3348C70.5435 23.6228 71.0875 23.1748 71.9915 23.1028L73.2715 22.9988V22.8708C73.2715 22.1108 72.8155 21.8708 72.2475 21.8708C71.5755 21.8708 71.1755 22.1748 71.1755 22.6948H70.6715C70.6715 21.9108 71.3115 21.4068 72.2635 21.4068C73.1595 21.4068 73.8155 21.8548 73.8155 22.8788V25.3828H73.3515L73.2795 24.7028C73.0395 25.1908 72.5115 25.4788 71.8555 25.4788ZM71.9835 25.0308C72.7995 25.0308 73.2715 24.4628 73.2715 23.6228V23.4148L72.1275 23.5028C71.3995 23.5668 71.1035 23.8868 71.1035 24.3188C71.1035 24.7908 71.4555 25.0308 71.9835 25.0308ZM76.6832 25.4788C75.5552 25.4788 74.8912 24.6148 74.8912 23.4548C74.8912 22.2868 75.5552 21.4068 76.7072 21.4068C77.3472 21.4068 77.8592 21.6868 78.1312 22.2468V19.5508H78.6832V25.3828H78.2032L78.1472 24.5908C77.8752 25.1908 77.3312 25.4788 76.6832 25.4788ZM76.7792 24.9748C77.6272 24.9748 78.1232 24.3348 78.1232 23.4388C78.1232 22.5508 77.6272 21.9028 76.7792 21.9028C75.9392 21.9028 75.4512 22.5508 75.4512 23.4388C75.4512 24.3348 75.9392 24.9748 76.7792 24.9748ZM82.2619 23.4468C82.2619 22.2628 83.0939 21.4068 84.2299 21.4068C85.3659 21.4068 86.1979 22.2628 86.1979 23.4468C86.1979 24.6228 85.3659 25.4788 84.2299 25.4788C83.0939 25.4788 82.2619 24.6228 82.2619 23.4468ZM82.8219 23.4388C82.8219 24.3508 83.3979 24.9828 84.2299 24.9828C85.0539 24.9828 85.6379 24.3508 85.6379 23.4388C85.6379 22.5428 85.0539 21.9028 84.2299 21.9028C83.3979 21.9028 82.8219 22.5428 82.8219 23.4388ZM87.8727 25.3828H87.3207V21.5108H87.8007L87.8807 22.1828C88.1367 21.6868 88.6487 21.4068 89.2087 21.4068C90.2727 21.4068 90.7127 22.0388 90.7127 23.0148V25.3828H90.1607V23.1348C90.1607 22.2308 89.7527 21.9108 89.1127 21.9108C88.3207 21.9108 87.8727 22.4868 87.8727 23.3588V25.3828Z" fill="#1570FA"/>
<path d="M48.3935 34.4148C46.0735 34.4148 44.7455 36.0948 44.7455 38.6228C44.7455 41.2308 46.2495 42.6548 48.4095 42.6548C50.4415 42.6548 51.6735 41.5348 51.6735 39.6628V39.6148H48.1375V37.8068H53.5775V44.3828H51.8495L51.7215 43.0388C51.0815 43.9348 49.7535 44.5588 48.1695 44.5588C44.8895 44.5588 42.6015 42.1748 42.6015 38.5748C42.6015 35.0228 44.9215 32.4948 48.4415 32.4948C51.1135 32.4948 53.1775 34.0468 53.5135 36.4308H51.3535C50.9855 35.0548 49.8015 34.4148 48.3935 34.4148ZM55.0372 40.4148C55.0372 37.9508 56.8132 36.2548 59.2612 36.2548C61.7092 36.2548 63.4852 37.9508 63.4852 40.4148C63.4852 42.8788 61.7092 44.5748 59.2612 44.5748C56.8132 44.5748 55.0372 42.8788 55.0372 40.4148ZM56.9892 40.4148C56.9892 41.8548 57.9172 42.8308 59.2612 42.8308C60.6052 42.8308 61.5332 41.8548 61.5332 40.4148C61.5332 38.9748 60.6052 37.9988 59.2612 37.9988C57.9172 37.9988 56.9892 38.9748 56.9892 40.4148ZM64.5684 40.4148C64.5684 37.9508 66.3444 36.2548 68.7924 36.2548C71.2404 36.2548 73.0164 37.9508 73.0164 40.4148C73.0164 42.8788 71.2404 44.5748 68.7924 44.5748C66.3444 44.5748 64.5684 42.8788 64.5684 40.4148ZM66.5204 40.4148C66.5204 41.8548 67.4484 42.8308 68.7924 42.8308C70.1364 42.8308 71.0644 41.8548 71.0644 40.4148C71.0644 38.9748 70.1364 37.9988 68.7924 37.9988C67.4484 37.9988 66.5204 38.9748 66.5204 40.4148ZM74.1157 40.2548C74.1157 37.9508 75.6197 36.2228 77.8757 36.2228C79.0597 36.2228 79.9877 36.7188 80.4517 37.5668L80.5637 36.4788H82.3717V43.9828C82.3717 46.6228 80.7877 48.2708 78.2277 48.2708C75.9557 48.2708 74.4037 46.9748 74.1637 44.8628H76.1157C76.2437 45.8868 77.0277 46.4948 78.2277 46.4948C79.5717 46.4948 80.4357 45.6468 80.4357 44.3348V43.0228C79.9397 43.7588 78.9637 44.2228 77.8277 44.2228C75.5877 44.2228 74.1157 42.5428 74.1157 40.2548ZM76.0837 40.2068C76.0837 41.5348 76.9317 42.5268 78.2117 42.5268C79.5557 42.5268 80.3877 41.5828 80.3877 40.2068C80.3877 38.8628 79.5717 37.9348 78.2117 37.9348C76.9157 37.9348 76.0837 38.9108 76.0837 40.2068ZM86.3598 44.3828H84.4238V32.4788H86.3598V44.3828ZM91.9434 44.5908C89.5914 44.5908 87.9434 42.8788 87.9434 40.4308C87.9434 37.9508 89.5594 36.2388 91.8794 36.2388C94.2474 36.2388 95.7514 37.8228 95.7514 40.2868V40.8788L89.7994 40.8948C89.9434 42.2868 90.6794 42.9908 91.9754 42.9908C93.0474 42.9908 93.7514 42.5748 93.9754 41.8228H95.7834C95.4474 43.5508 94.0074 44.5908 91.9434 44.5908ZM91.8954 37.8388C90.7434 37.8388 90.0394 38.4628 89.8474 39.6468H93.8154C93.8154 38.5588 93.0634 37.8388 91.8954 37.8388ZM106.538 40.3508H103.962V44.3828H101.914V32.6868H106.538C108.89 32.6868 110.41 34.2228 110.41 36.5108C110.41 38.7668 108.874 40.3508 106.538 40.3508ZM106.138 34.5108H103.962V38.5268H106.106C107.514 38.5268 108.266 37.7748 108.266 36.4948C108.266 35.2148 107.498 34.5108 106.138 34.5108ZM113.813 44.3828H111.877V32.4788H113.813V44.3828ZM118.213 44.5908C116.533 44.5908 115.509 43.6148 115.509 42.1268C115.509 40.6708 116.565 39.7588 118.437 39.6148L120.805 39.4388V39.2628C120.805 38.1908 120.165 37.7588 119.173 37.7588C118.021 37.7588 117.381 38.2388 117.381 39.0708H115.717C115.717 37.3588 117.125 36.2388 119.269 36.2388C121.397 36.2388 122.709 37.3908 122.709 39.5828V44.3828H120.997L120.853 43.2148C120.517 44.0308 119.445 44.5908 118.213 44.5908ZM118.853 43.1188C120.053 43.1188 120.821 42.3988 120.821 41.1828V40.7668L119.173 40.8948C117.957 41.0068 117.493 41.4068 117.493 42.0468C117.493 42.7668 117.973 43.1188 118.853 43.1188ZM123.719 48.0468V46.4148H124.887C125.655 46.4148 126.135 46.2388 126.471 45.3108L126.695 44.7188L123.511 36.4788H125.575L127.607 42.2388L129.751 36.4788H131.767L127.895 46.1428C127.303 47.6148 126.471 48.2228 125.175 48.2228C124.631 48.2228 124.151 48.1588 123.719 48.0468Z" fill="#1570FA"/>
</svg>
