<svg width="127" height="23" viewBox="0 0 127 23" fill="none" xmlns="http://www.w3.org/2000/svg">
<path d="M11.3366 2.13281L14.1691 7.87115L20.5033 8.79698L15.9199 13.2611L17.0016 19.5678L11.3366 16.5886L5.67159 19.5678L6.75326 13.2611L2.16992 8.79698L8.50409 7.87115L11.3366 2.13281Z" fill="#1570FA" stroke="#1570FA" stroke-linecap="round" stroke-linejoin="round"/>
<path d="M37.3366 2.13281L40.1691 7.87115L46.5033 8.79698L41.9199 13.2611L43.0016 19.5678L37.3366 16.5886L31.6716 19.5678L32.7533 13.2611L28.1699 8.79698L34.5041 7.87115L37.3366 2.13281Z" fill="#1570FA" stroke="#1570FA" stroke-linecap="round" stroke-linejoin="round"/>
<path d="M63.3366 2.13281L66.1691 7.87115L72.5033 8.79698L67.9199 13.2611L69.0016 19.5678L63.3366 16.5886L57.6716 19.5678L58.7533 13.2611L54.1699 8.79698L60.5041 7.87115L63.3366 2.13281Z" fill="#1570FA" stroke="#1570FA" stroke-linecap="round" stroke-linejoin="round"/>
<path d="M89.3366 2.13281L92.1691 7.87115L98.5033 8.79698L93.9199 13.2611L95.0016 19.5678L89.3366 16.5886L83.6716 19.5678L84.7533 13.2611L80.1699 8.79698L86.5041 7.87115L89.3366 2.13281Z" fill="#1570FA" stroke="#1570FA" stroke-linecap="round" stroke-linejoin="round"/>
<path d="M115.337 2.13281L118.169 7.87115L124.503 8.79698L119.92 13.2611L121.002 19.5678L115.337 16.5886L109.672 19.5678L110.753 13.2611L106.17 8.79698L112.504 7.87115L115.337 2.13281Z" stroke="#1570FA" stroke-linecap="round" stroke-linejoin="round"/>
</svg>
