<svg width="42" height="44" viewBox="0 0 42 44" fill="none" xmlns="http://www.w3.org/2000/svg">
<path d="M20.8455 1.52447L21 1.47427L21.1545 1.52447L32.9102 5.34413L33.0647 5.39433L33.1602 5.52577L40.4256 15.5258L40.5211 15.6572V15.8197V28.1803V28.3428L40.4256 28.4742L33.1602 38.4742L33.0647 38.6057L32.9102 38.6559L21.1545 42.4755L21 42.5257L20.8455 42.4755L9.08979 38.6559L8.93528 38.6057L8.83979 38.4742L1.57436 28.4742L1.47887 28.3428V28.1803V15.8197V15.6572L1.57436 15.5258L8.83979 5.52577L8.93528 5.39433L9.08979 5.34413L20.8455 1.52447Z" fill="#267E79" stroke="#2D2327"/>
<path d="M33 12.3984C32.064 12.9772 30.186 13.7659 29.082 13.9933C29.0496 14.0021 29.0232 14.0133 28.992 14.0221C28.0164 13.0196 26.6796 12.3984 25.2 12.3984C22.218 12.3984 19.8 14.917 19.8 18.0231C19.8 18.1868 19.7868 18.4881 19.8 18.648C15.7764 18.648 12.714 16.4532 10.518 13.6484C10.2792 14.2733 10.1748 15.2608 10.1748 16.1882C10.1748 17.9393 11.4888 19.6592 13.5348 20.7254C13.158 20.8267 12.7428 20.8992 12.3108 20.8992C11.6136 20.8992 10.8756 20.7079 10.2 20.128C10.2 20.1492 10.2 20.1692 10.2 20.1917C10.2 22.639 12.6936 24.3052 14.9112 24.7689C14.4612 25.0451 13.554 25.0726 13.1112 25.0726C12.7992 25.0726 11.6952 24.9239 11.4 24.8664C12.0168 26.8725 14.2416 28 16.362 28.04C14.7036 29.3949 13.5528 29.8973 10.1568 29.8973H9C11.1456 31.3298 13.878 32.3984 16.6164 32.3984C25.5324 32.3984 30.6 25.3201 30.6 18.648C30.6 18.5406 30.5976 18.3156 30.594 18.0893C30.594 18.0668 30.6 18.0456 30.6 18.0231C30.6 17.9893 30.5904 17.9568 30.5904 17.9231C30.5868 17.7531 30.5832 17.5944 30.5796 17.5119C31.5276 16.7994 32.3496 15.9107 33 14.8983C32.13 15.3008 31.1964 15.5707 30.216 15.6932C31.2168 15.0683 32.6388 13.5784 33 12.3984Z" fill="#6DD3CE" stroke="#2D2327"/>
</svg>
