<svg width="261" height="57" viewBox="0 0 261 57" fill="none" xmlns="http://www.w3.org/2000/svg">
<path d="M1.12305 31.5508C1.28581 31.8112 1.46484 32.1204 1.66016 32.4785C1.85547 32.8366 2.03451 33.1458 2.19727 33.4062C2.7832 34.4805 3.43424 35.4733 4.15039 36.3848C4.89909 37.2637 5.68034 38.0286 6.49414 38.6797C7.34049 39.3307 8.20312 39.8353 9.08203 40.1934C9.96094 40.5514 10.8073 40.7305 11.6211 40.7305C13.737 40.7305 15.3971 40.2422 16.6016 39.2656C17.8385 38.2891 18.457 37.1172 18.457 35.75C18.457 34.6107 17.6107 33.4714 15.918 32.332C14.2578 31.1927 11.9954 30.2324 9.13086 29.4512C7.86133 29.0931 6.70573 28.6374 5.66406 28.084C4.6224 27.498 3.72721 26.8307 2.97852 26.082C2.26237 25.3008 1.69271 24.4707 1.26953 23.5918C0.878906 22.6803 0.683594 21.7363 0.683594 20.7598C0.683594 19.1973 0.976562 17.7812 1.5625 16.5117C2.18099 15.2422 3.02734 14.168 4.10156 13.2891C5.20833 12.4102 6.54297 11.7266 8.10547 11.2383C9.66797 10.75 11.4258 10.5059 13.3789 10.5059C14.1927 10.5059 15.0065 10.571 15.8203 10.7012C16.6667 10.8314 17.4805 11.0267 18.2617 11.2871C19.0755 11.515 19.8242 11.8079 20.5078 12.166C21.224 12.5241 21.8424 12.9147 22.3633 13.3379L22.8027 21.1504H22.0703C21.8099 20.2715 21.3867 19.3275 20.8008 18.3184C20.2148 17.2767 19.515 16.3327 18.7012 15.4863C17.8874 14.6074 16.9922 13.8913 16.0156 13.3379C15.0391 12.752 14.0299 12.459 12.9883 12.459C11.0026 12.4915 9.42383 12.9635 8.25195 13.875C7.08008 14.7865 6.49414 16.0234 6.49414 17.5859C6.49414 18.5625 7.32422 19.5716 8.98438 20.6133C10.6445 21.6549 12.8743 22.5501 15.6738 23.2988C18.3431 24.0475 20.4753 25.252 22.0703 26.9121C23.6654 28.5397 24.4629 30.4115 24.4629 32.5273C24.4629 33.9922 24.1536 35.3594 23.5352 36.6289C22.9492 37.8659 22.0866 38.9401 20.9473 39.8516C19.8405 40.763 18.4896 41.4792 16.8945 42C15.332 42.4883 13.5742 42.7324 11.6211 42.7324C10.5143 42.7324 9.42383 42.6348 8.34961 42.4395C7.27539 42.2767 6.26628 42.0326 5.32227 41.707C4.41081 41.3815 3.56445 41.0234 2.7832 40.6328C2.03451 40.2096 1.39974 39.7865 0.878906 39.3633L0.439453 31.5508H1.12305ZM25.7559 22.5176V21.7363C26.9277 21.4759 28.3112 20.597 29.9062 19.0996C31.5013 17.6022 33.0312 15.6979 34.4961 13.3867H35.6191V19.7344H42.1133V22.5176H35.6191C35.6191 24.3405 35.6191 26.1146 35.6191 27.8398C35.5866 29.3047 35.5703 30.8346 35.5703 32.4297C35.5703 33.9922 35.5703 35.3105 35.5703 36.3848C35.5703 37.459 35.7331 38.1751 36.0586 38.5332C36.4167 38.8913 37.0677 39.0703 38.0117 39.0703C38.2396 39.0703 38.5163 39.0378 38.8418 38.9727C39.1673 38.875 39.5091 38.7285 39.8672 38.5332C40.2578 38.3379 40.6484 38.0612 41.0391 37.7031C41.4297 37.3451 41.8203 36.8893 42.2109 36.3359L42.6992 36.9707C42.0807 38.11 41.3809 39.0215 40.5996 39.7051C39.8509 40.3887 39.1022 40.9258 38.3535 41.3164C37.6048 41.6745 36.9049 41.9186 36.2539 42.0488C35.6029 42.179 35.0658 42.2441 34.6426 42.2441C33.4707 42.2441 32.4941 42.1465 31.7129 41.9512C30.9316 41.7233 30.3132 41.349 29.8574 40.8281C29.4017 40.2747 29.0762 39.5423 28.8809 38.6309C28.6855 37.7194 28.5879 36.5638 28.5879 35.1641V22.5176H25.7559ZM43.2598 20.2715V19.7344H53.5137V33.7969C53.5137 34.9362 53.9043 35.8477 54.6855 36.5312C55.4668 37.2148 56.6387 37.5566 58.2012 37.5566C58.5592 37.5566 58.8848 37.4753 59.1777 37.3125C59.4707 37.1172 59.7311 36.8893 59.959 36.6289V29.1094C59.9915 26.8958 59.7474 25.0566 59.2266 23.5918C58.7383 22.127 58.0384 21.3457 57.127 21.248L56.6875 21.1992C56.6875 21.1341 56.6875 21.0527 56.6875 20.9551C56.6549 20.8574 56.6387 20.6296 56.6387 20.2715V19.7344H66.8438V29.1094C66.8438 30.6068 66.8763 31.8438 66.9414 32.8203C67.0065 33.7969 67.1367 34.5944 67.332 35.2129C67.5599 35.7988 67.8529 36.2871 68.2109 36.6777C68.6016 37.0358 69.0898 37.3613 69.6758 37.6543L70.1641 37.8984C70.1641 37.931 70.1803 37.9798 70.2129 38.0449V38.3867L61.375 42H59.959V37.9961C58.9499 39.3307 57.8594 40.3724 56.6875 41.1211C55.5156 41.8698 54.2135 42.2441 52.7812 42.2441C50.7305 42.2441 49.1842 41.5443 48.1426 40.1445C47.1335 38.7448 46.6289 36.873 46.6289 34.5293V28.7676C46.6289 26.5866 46.3685 24.8125 45.8477 23.4453C45.3594 22.0781 44.6758 21.3457 43.7969 21.248L43.3086 21.1992C43.3086 21.1341 43.3086 21.0527 43.3086 20.9551C43.276 20.8574 43.2598 20.6296 43.2598 20.2715ZM71.5547 32.4297C71.5547 30.444 71.8314 28.6536 72.3848 27.0586C72.9382 25.4635 73.7194 24.1126 74.7285 23.0059C75.7702 21.8665 77.0072 21.0039 78.4395 20.418C79.9043 19.7995 81.5319 19.4902 83.3223 19.4902C84.0059 19.4902 84.6569 19.6042 85.2754 19.832C85.8939 20.0599 86.4798 20.3691 87.0332 20.7598C87.0007 19.5553 86.9355 18.5625 86.8379 17.7812C86.7728 16.9674 86.6263 16.3164 86.3984 15.8281C86.2031 15.3073 85.9264 14.8841 85.5684 14.5586C85.2103 14.2331 84.7546 13.9238 84.2012 13.6309L83.7129 13.3867C83.7129 13.3542 83.7129 13.3053 83.7129 13.2402C83.6803 13.1751 83.6641 13.0612 83.6641 12.8984L92.502 9.28516H93.8691V29.1094C93.8691 30.6068 93.9017 31.8438 93.9668 32.8203C94.0645 33.7643 94.2109 34.5456 94.4062 35.1641C94.6341 35.7826 94.9271 36.2708 95.2852 36.6289C95.6758 36.987 96.1641 37.3288 96.75 37.6543L97.1895 37.8984C97.1895 37.931 97.2057 37.9798 97.2383 38.0449V38.3867L88.4004 42H87.0332V38.6797C86.0892 39.7865 85.0475 40.6654 83.9082 41.3164C82.8014 41.9349 81.7272 42.2441 80.6855 42.2441C77.8535 42.2441 75.6237 41.3652 73.9961 39.6074C72.3685 37.8496 71.5547 35.457 71.5547 32.4297ZM84.4453 37.8984C84.9987 37.8984 85.487 37.8496 85.9102 37.752C86.3659 37.6217 86.7402 37.4753 87.0332 37.3125V23.6895C86.5775 23.0059 85.9915 22.4688 85.2754 22.0781C84.5918 21.6549 83.8268 21.4434 82.9805 21.4434C81.6784 21.4434 80.6367 22.1921 79.8555 23.6895C79.1068 25.1868 78.7324 27.2051 78.7324 29.7441C78.7324 32.2507 79.237 34.2363 80.2461 35.7012C81.2878 37.166 82.6875 37.8984 84.4453 37.8984ZM98.2383 42V41.4629C98.2383 41.1048 98.2546 40.877 98.2871 40.7793C98.2871 40.6816 98.2871 40.6003 98.2871 40.5352L98.7266 40.4863C99.6706 40.3887 100.387 39.6237 100.875 38.1914C101.363 36.7266 101.607 34.8874 101.607 32.6738C101.607 31.1439 101.559 29.9069 101.461 28.9629C101.396 27.9863 101.249 27.1888 101.021 26.5703C100.826 25.9518 100.533 25.4635 100.143 25.1055C99.7845 24.7474 99.3125 24.4056 98.7266 24.0801L98.2871 23.8359C98.2871 23.8034 98.2871 23.7546 98.2871 23.6895C98.2546 23.6243 98.2383 23.5104 98.2383 23.3477L107.125 19.7344H108.492V32.9668C108.492 35.1478 108.753 36.9219 109.273 38.2891C109.794 39.6562 110.478 40.3887 111.324 40.4863L111.812 40.5352C111.812 40.6003 111.829 40.6816 111.861 40.7793V41.4629V42H98.2383ZM100.875 12.4102C100.875 11.2057 101.217 10.2617 101.9 9.57812C102.584 8.86198 103.512 8.50391 104.684 8.50391C105.823 8.50391 106.734 8.86198 107.418 9.57812C108.102 10.2617 108.443 11.2057 108.443 12.4102C108.443 13.6146 108.102 14.5749 107.418 15.291C106.734 15.9746 105.823 16.3164 104.684 16.3164C103.512 16.3164 102.584 15.9746 101.9 15.291C101.217 14.5749 100.875 13.6146 100.875 12.4102ZM113.154 30.8672C113.154 29.1419 113.431 27.5794 113.984 26.1797C114.57 24.7799 115.4 23.5918 116.475 22.6152C117.549 21.6061 118.851 20.8411 120.381 20.3203C121.911 19.7669 123.62 19.4902 125.508 19.4902C127.363 19.4902 129.04 19.7669 130.537 20.3203C132.067 20.8411 133.369 21.6061 134.443 22.6152C135.518 23.5918 136.331 24.7799 136.885 26.1797C137.471 27.5794 137.764 29.1419 137.764 30.8672C137.764 32.5924 137.471 34.1549 136.885 35.5547C136.331 36.9544 135.518 38.1589 134.443 39.168C133.369 40.1445 132.067 40.9095 130.537 41.4629C129.04 41.9837 127.363 42.2441 125.508 42.2441C123.62 42.2441 121.911 41.9837 120.381 41.4629C118.851 40.9095 117.549 40.1445 116.475 39.168C115.4 38.1589 114.57 36.9544 113.984 35.5547C113.431 34.1549 113.154 32.5924 113.154 30.8672ZM120.674 30.8672C120.674 33.862 121.113 36.2383 121.992 37.9961C122.871 39.7539 124.043 40.6328 125.508 40.6328C126.973 40.6328 128.145 39.7539 129.023 37.9961C129.902 36.2383 130.342 33.862 130.342 30.8672C130.342 27.8724 129.902 25.4961 129.023 23.7383C128.145 21.9805 126.973 21.1016 125.508 21.1016C124.043 21.1016 122.871 21.9805 121.992 23.7383C121.113 25.4961 120.674 27.8724 120.674 30.8672ZM140.424 40.5352L140.912 40.4863C141.791 40.3887 142.507 39.6562 143.061 38.2891C143.646 36.9219 143.972 35.1478 144.037 32.9668L144.574 19.1484C144.607 17.1302 144.395 15.5026 143.939 14.2656C143.484 13.0286 142.849 12.3613 142.035 12.2637L141.596 12.2148C141.596 12.1497 141.596 12.0684 141.596 11.9707C141.563 11.873 141.547 11.6452 141.547 11.2871V10.75H150.824L162.885 33.4062L173.139 10.75H176.605V10.7012H183.295V12.166L182.855 12.2148C182.009 12.3125 181.374 13.0612 180.951 14.4609C180.528 15.8281 180.365 17.5859 180.463 19.7344L181.098 33.8945C181.26 35.8151 181.618 37.3776 182.172 38.582C182.725 39.7865 183.409 40.4212 184.223 40.4863L184.711 40.5352V42H170.453V41.4629C170.453 41.1048 170.469 40.877 170.502 40.7793C170.502 40.6816 170.502 40.6003 170.502 40.5352L170.99 40.4863C171.804 40.4212 172.439 39.7865 172.895 38.582C173.35 37.3776 173.594 35.7988 173.627 33.8457L173.285 16.6582L161.176 42.2441H159.32C157.367 38.5332 155.284 34.8385 153.07 31.1602C150.857 27.4818 148.773 23.7708 146.82 20.0273L146.381 32.2344C146.348 33.4388 146.397 34.5456 146.527 35.5547C146.69 36.5312 146.934 37.3776 147.26 38.0938C147.585 38.8099 147.992 39.3796 148.48 39.8027C148.969 40.2259 149.522 40.4538 150.141 40.4863L150.873 40.5352C150.873 40.6003 150.889 40.6816 150.922 40.7793V41.4629V42H140.424V40.5352ZM186.883 36.4824C186.883 35.0501 187.322 33.8945 188.201 33.0156C189.08 32.1042 190.154 31.4043 191.424 30.916C192.693 30.3952 194.028 30.0371 195.428 29.8418C196.86 29.6139 198.113 29.4837 199.188 29.4512V25.6426C199.188 24.4056 199.025 23.4128 198.699 22.6641C198.406 21.9154 197.983 21.541 197.43 21.541C196.355 21.541 195.574 22.0781 195.086 23.1523C194.598 24.194 194.467 25.5775 194.695 27.3027C194.044 27.4655 193.442 27.5957 192.889 27.6934C192.368 27.791 191.831 27.8398 191.277 27.8398C190.757 27.8398 190.219 27.791 189.666 27.6934C189.113 27.5957 188.478 27.4655 187.762 27.3027C187.599 26.1634 187.762 25.1055 188.25 24.1289C188.738 23.1523 189.471 22.3223 190.447 21.6387C191.456 20.9551 192.677 20.4342 194.109 20.0762C195.574 19.6855 197.202 19.5228 198.992 19.5879C201.271 19.653 203.077 20.3691 204.412 21.7363C205.779 23.071 206.463 24.9102 206.463 27.2539V35.7012C206.463 36.7428 206.593 37.5892 206.854 38.2402C207.114 38.8587 207.618 39.168 208.367 39.168C208.921 39.168 209.36 39.0866 209.686 38.9238C210.011 38.7285 210.255 38.4681 210.418 38.1426L211.15 39.0703C210.564 40.1445 209.718 41.0072 208.611 41.6582C207.505 42.2767 205.861 42.5859 203.68 42.5859C202.703 42.5859 201.857 42.3743 201.141 41.9512C200.424 41.528 199.936 40.9421 199.676 40.1934C198.829 40.7467 197.82 41.2513 196.648 41.707C195.477 42.1302 194.24 42.3418 192.938 42.3418C192.026 42.3418 191.196 42.179 190.447 41.8535C189.699 41.528 189.064 41.1048 188.543 40.584C188.022 40.0306 187.615 39.3958 187.322 38.6797C187.029 37.9635 186.883 37.2311 186.883 36.4824ZM193.768 35.3594C193.768 36.4987 194.109 37.3776 194.793 37.9961C195.509 38.582 196.307 38.875 197.186 38.875C197.934 38.875 198.618 38.6634 199.236 38.2402L199.188 30.8184C198.504 30.8184 197.837 30.8997 197.186 31.0625C196.567 31.2253 195.997 31.502 195.477 31.8926C194.956 32.2507 194.533 32.7227 194.207 33.3086C193.914 33.862 193.768 34.5456 193.768 35.3594ZM212.248 42V41.4629C212.248 41.1048 212.264 40.877 212.297 40.7793C212.297 40.6816 212.297 40.6003 212.297 40.5352L212.736 40.4863C213.68 40.3887 214.38 39.6237 214.836 38.1914C215.324 36.7266 215.568 34.8711 215.568 32.625C215.568 31.0951 215.536 29.8581 215.471 28.9141C215.406 27.9701 215.259 27.1888 215.031 26.5703C214.836 25.9518 214.543 25.4635 214.152 25.1055C213.794 24.7474 213.322 24.4056 212.736 24.0801L212.297 23.8359C212.297 23.8034 212.297 23.7546 212.297 23.6895C212.264 23.6243 212.248 23.5104 212.248 23.3477L221.086 19.7344H222.453V26.8633C222.681 26.3099 222.974 25.6589 223.332 24.9102C223.69 24.1615 224.113 23.4453 224.602 22.7617C225.09 22.0781 225.643 21.4759 226.262 20.9551C226.88 20.4017 227.548 20.0599 228.264 19.9297C229.663 19.6693 230.705 19.8971 231.389 20.6133C232.072 21.2969 232.528 22.2897 232.756 23.5918C232.821 24.1126 232.772 24.6009 232.609 25.0566C232.479 25.4798 232.284 25.8542 232.023 26.1797C231.796 26.4727 231.519 26.7005 231.193 26.8633C230.868 26.9935 230.575 27.0098 230.314 26.9121C229.696 26.6842 229.094 26.3913 228.508 26.0332C227.922 25.6751 227.287 25.4961 226.604 25.4961C226.018 25.4961 225.383 25.724 224.699 26.1797C224.048 26.6029 223.299 27.4329 222.453 28.6699V32.9668C222.453 35.1478 222.697 36.9219 223.186 38.2891C223.706 39.6562 224.406 40.3887 225.285 40.4863L225.773 40.5352C225.773 40.6003 225.79 40.6816 225.822 40.7793V41.4629V42H212.248ZM233.561 22.5176V21.7363C234.732 21.4759 236.116 20.597 237.711 19.0996C239.306 17.6022 240.836 15.6979 242.301 13.3867H243.424V19.7344H249.918V22.5176H243.424C243.424 24.3405 243.424 26.1146 243.424 27.8398C243.391 29.3047 243.375 30.8346 243.375 32.4297C243.375 33.9922 243.375 35.3105 243.375 36.3848C243.375 37.459 243.538 38.1751 243.863 38.5332C244.221 38.8913 244.872 39.0703 245.816 39.0703C246.044 39.0703 246.321 39.0378 246.646 38.9727C246.972 38.875 247.314 38.7285 247.672 38.5332C248.062 38.3379 248.453 38.0612 248.844 37.7031C249.234 37.3451 249.625 36.8893 250.016 36.3359L250.504 36.9707C249.885 38.11 249.186 39.0215 248.404 39.7051C247.656 40.3887 246.907 40.9258 246.158 41.3164C245.41 41.6745 244.71 41.9186 244.059 42.0488C243.408 42.179 242.87 42.2441 242.447 42.2441C241.275 42.2441 240.299 42.1465 239.518 41.9512C238.736 41.7233 238.118 41.349 237.662 40.8281C237.206 40.2747 236.881 39.5423 236.686 38.6309C236.49 37.7194 236.393 36.5638 236.393 35.1641V22.5176H233.561Z" fill="white"/>
<circle cx="258" cy="36.5" r="3" fill="#1570FA"/>
</svg>
